# Blender 4.1.1
# www.blender.org
mtllib spoon_mount.mtl
o spoon_mount
v 0.024817 0.083538 0.024077
v 0.018662 0.083538 0.024077
v 0.018662 0.083538 0.012090
v 0.024817 0.083538 0.012090
v 0.018662 0.122048 0.012090
v 0.024817 0.122048 0.012090
v 0.018662 0.122048 0.024077
v 0.024817 0.122048 0.024077
v 0.019505 0.104684 0.013013
v 0.002995 0.122420 0.012950
v 0.004623 0.122420 0.013013
v 0.002995 0.122420 -0.013423
v 0.012520 0.111007 -0.013419
v 0.004623 0.122420 -0.013487
v 0.019505 0.102744 -0.013423
v 0.019505 0.104684 -0.013487
v 0.019505 0.122420 0.013013
v 0.019505 0.122420 -0.013487
v 0.019505 0.122420 -0.025237
v 0.019505 0.084020 -0.025237
v 0.019505 0.100823 -0.013232
v 0.019505 0.098939 -0.012916
v 0.019505 0.098017 -0.012712
v 0.019505 0.097111 -0.012478
v 0.019505 0.096223 -0.012214
v 0.019505 0.095355 -0.011922
v 0.019505 0.094510 -0.011602
v 0.019505 0.093690 -0.011254
v 0.019505 0.092896 -0.010879
v 0.019505 0.092130 -0.010479
v 0.019505 0.091394 -0.010054
v 0.019505 0.090691 -0.009606
v 0.019505 0.090021 -0.009135
v 0.019505 0.089387 -0.008642
v 0.019505 0.088789 -0.008130
v 0.019505 0.088230 -0.007598
v 0.019505 0.087710 -0.007048
v 0.019505 0.087232 -0.006483
v 0.019505 0.086795 -0.005902
v 0.019505 0.086401 -0.005307
v 0.019505 0.086052 -0.004700
v 0.019505 0.085747 -0.004083
v 0.019505 0.085488 -0.003456
v 0.019505 0.085275 -0.002822
v 0.019505 0.085109 -0.002181
v 0.019505 0.084990 -0.001535
v 0.019505 0.084919 -0.000887
v 0.019505 0.084895 -0.000237
v 0.019505 0.084020 0.024763
v 0.019505 0.084919 0.000414
v 0.019505 0.084990 0.001062
v 0.019505 0.085109 0.001708
v 0.019505 0.085275 0.002348
v 0.019505 0.085488 0.002983
v 0.019505 0.085747 0.003610
v 0.019505 0.086052 0.004227
v 0.019505 0.086401 0.004834
v 0.019505 0.086795 0.005429
v 0.019505 0.087232 0.006009
v 0.019505 0.087710 0.006575
v 0.019505 0.088230 0.007125
v 0.019505 0.088789 0.007656
v 0.019505 0.089387 0.008169
v 0.019505 0.090021 0.008662
v 0.019505 0.090691 0.009133
v 0.019505 0.091394 0.009581
v 0.019505 0.092130 0.010006
v 0.019505 0.092896 0.010406
v 0.019505 0.093690 0.010780
v 0.019505 0.094510 0.011128
v 0.019505 0.095355 0.011449
v 0.019505 0.096223 0.011741
v 0.019505 0.097111 0.012005
v 0.019505 0.098017 0.012239
v 0.019505 0.098939 0.012443
v 0.019505 0.100823 0.012759
v 0.019505 0.102744 0.012950
v 0.019505 0.122420 0.024763
v -0.018895 0.122420 -0.025237
v 0.001383 0.122420 -0.013232
v -0.000197 0.122420 -0.012916
v -0.001732 0.122420 -0.012478
v -0.003205 0.122420 -0.011922
v -0.003914 0.122420 -0.011602
v -0.004602 0.122420 -0.011254
v -0.005269 0.122420 -0.010879
v -0.005911 0.122420 -0.010479
v -0.006528 0.122420 -0.010054
v -0.007119 0.122420 -0.009606
v -0.007681 0.122420 -0.009135
v -0.008213 0.122420 -0.008642
v -0.008714 0.122420 -0.008130
v -0.009184 0.122420 -0.007598
v -0.009620 0.122420 -0.007048
v -0.010021 0.122420 -0.006483
v -0.010388 0.122420 -0.005902
v -0.010718 0.122420 -0.005307
v -0.011011 0.122420 -0.004700
v -0.011267 0.122420 -0.004083
v -0.011485 0.122420 -0.003456
v -0.011663 0.122420 -0.002822
v -0.011802 0.122420 -0.002181
v -0.011902 0.122420 -0.001535
v -0.011962 0.122420 -0.000887
v -0.011982 0.122420 -0.000237
v -0.018895 0.122420 0.024763
v -0.011962 0.122420 0.000414
v -0.011902 0.122420 0.001062
v -0.011802 0.122420 0.001708
v -0.011663 0.122420 0.002348
v -0.011485 0.122420 0.002983
v -0.011267 0.122420 0.003610
v -0.011011 0.122420 0.004227
v -0.010718 0.122420 0.004834
v -0.010388 0.122420 0.005429
v -0.010021 0.122420 0.006009
v -0.009620 0.122420 0.006575
v -0.009184 0.122420 0.007125
v -0.008714 0.122420 0.007656
v -0.008213 0.122420 0.008169
v -0.007681 0.122420 0.008662
v -0.007119 0.122420 0.009133
v -0.006528 0.122420 0.009581
v -0.005911 0.122420 0.010006
v -0.005269 0.122420 0.010406
v -0.004602 0.122420 0.010780
v -0.003914 0.122420 0.011128
v -0.003205 0.122420 0.011449
v -0.001732 0.122420 0.012005
v -0.000197 0.122420 0.012443
v 0.001383 0.122420 0.012759
v -0.009295 0.112820 0.019763
v -0.009295 0.093620 0.019763
v 0.009905 0.112820 0.019763
v 0.009905 0.093620 0.019763
v -0.009295 0.093620 -0.020237
v -0.009295 0.112820 -0.020237
v 0.009905 0.093620 -0.020237
v 0.009905 0.112820 -0.020237
v 0.009905 0.093620 0.024763
v -0.009295 0.093620 0.024763
v 0.009905 0.112820 0.024763
v 0.009905 0.093620 -0.025237
v 0.009905 0.112820 -0.025237
v -0.009295 0.112820 0.024763
v -0.009295 0.112820 -0.025237
v -0.009295 0.093620 -0.025237
v -0.018895 0.084020 0.024763
v -0.018895 0.084020 -0.025237
v -0.011362 0.122048 -0.017679
v -0.011362 0.085331 -0.017679
v -0.011362 0.085331 0.015477
v -0.011362 0.122048 0.015477
v 0.019441 0.085331 0.015477
v 0.019441 0.122048 0.015477
v 0.019441 0.085331 -0.017679
v 0.019441 0.122048 -0.017679
v 0.012520 0.111007 0.012945
v 0.011544 0.110188 0.012742
v 0.010589 0.109386 0.012406
v 0.009663 0.108610 0.011940
v 0.008777 0.107866 0.011348
v 0.007939 0.107163 0.010639
v 0.007159 0.106508 0.009817
v 0.006443 0.105908 0.008892
v 0.005800 0.105368 0.007874
v 0.005236 0.104895 0.006772
v 0.004757 0.104493 0.005599
v 0.004368 0.104167 0.004365
v 0.004073 0.103919 0.003085
v 0.003874 0.103752 0.001770
v 0.003774 0.103668 0.000435
v 0.003774 0.103668 -0.000908
v 0.003874 0.103752 -0.002243
v 0.004073 0.103919 -0.003558
v 0.004368 0.104167 -0.004838
v 0.004757 0.104493 -0.006072
v 0.005236 0.104895 -0.007245
v 0.005800 0.105368 -0.008347
v 0.006443 0.105908 -0.009365
v 0.007159 0.106508 -0.010290
v 0.007939 0.107163 -0.011112
v 0.008777 0.107866 -0.011822
v 0.009663 0.108610 -0.012413
v 0.010589 0.109386 -0.012879
v 0.011544 0.110188 -0.013215
v 0.024817 0.083833 -0.012344
v 0.018662 0.083833 -0.012344
v 0.018662 0.083833 -0.024331
v 0.024817 0.083833 -0.024331
v 0.018662 0.122343 -0.024331
v 0.024817 0.122343 -0.024331
v 0.018662 0.122343 -0.012344
v 0.024817 0.122343 -0.012344
vn 0.5851 -0.5850 0.5616
vn -0.5850 -0.5851 0.5616
vn -0.5851 -0.5850 -0.5616
vn 0.5850 -0.5850 -0.5617
vn -0.5850 0.5851 -0.5616
vn 0.5851 0.5851 -0.5616
vn -0.5851 0.5851 0.5616
vn 0.5850 0.5851 0.5616
vn 0.7349 0.0174 -0.6779
vn 0.0627 0.7553 -0.6524
vn 0.0192 0.7333 -0.6796
vn 0.0627 0.7553 0.6524
vn 0.0816 0.0683 0.9943
vn 0.0193 0.7334 0.6796
vn 0.7601 0.0546 0.6475
vn 0.7348 0.0173 0.6780
vn 0.5850 0.5850 -0.5617
vn 0.5850 0.5850 0.5617
vn 0.5850 -0.5851 -0.5617
vn 0.7835 0.0934 0.6144
vn 0.7998 0.1227 0.5876
vn 0.8103 0.1420 0.5686
vn 0.8203 0.1580 0.5496
vn 0.8304 0.1734 0.5295
vn 0.8396 0.1879 0.5096
vn 0.8489 0.2018 0.4886
vn 0.8573 0.2148 0.4678
vn 0.8658 0.2271 0.4459
vn 0.8734 0.2387 0.4244
vn 0.8810 0.2496 0.4018
vn 0.8879 0.2598 0.3798
vn 0.8946 0.2693 0.3566
vn 0.9006 0.2781 0.3340
vn 0.9065 0.2862 0.3105
vn 0.9117 0.2937 0.2874
vn 0.9166 0.3005 0.2636
vn 0.9211 0.3066 0.2401
vn 0.9251 0.3122 0.2162
vn 0.9287 0.3171 0.1925
vn 0.9319 0.3212 0.1683
vn 0.9347 0.3249 0.1444
vn 0.9370 0.3280 0.1204
vn 0.9389 0.3303 0.0963
vn 0.9404 0.3323 0.0722
vn 0.9414 0.3338 0.0481
vn 0.9420 0.3348 0.0241
vn 0.9424 0.3344 -0.0000
vn 0.5850 -0.5851 0.5617
vn 0.9420 0.3347 -0.0241
vn 0.9414 0.3338 -0.0481
vn 0.9404 0.3323 -0.0722
vn 0.9389 0.3305 -0.0964
vn 0.9370 0.3279 -0.1203
vn 0.9346 0.3249 -0.1445
vn 0.9319 0.3212 -0.1683
vn 0.9287 0.3170 -0.1925
vn 0.9251 0.3121 -0.2161
vn 0.9211 0.3066 -0.2401
vn 0.9166 0.3005 -0.2636
vn 0.9117 0.2937 -0.2874
vn 0.9065 0.2862 -0.3105
vn 0.9006 0.2781 -0.3340
vn 0.8946 0.2693 -0.3566
vn 0.8879 0.2598 -0.3798
vn 0.8810 0.2496 -0.4018
vn 0.8734 0.2387 -0.4244
vn 0.8658 0.2271 -0.4459
vn 0.8573 0.2148 -0.4678
vn 0.8489 0.2018 -0.4886
vn 0.8396 0.1879 -0.5096
vn 0.8304 0.1734 -0.5295
vn 0.8203 0.1580 -0.5496
vn 0.8103 0.1420 -0.5686
vn 0.7998 0.1227 -0.5876
vn 0.7835 0.0934 -0.6144
vn 0.7601 0.0546 -0.6475
vn -0.5851 0.5850 -0.5617
vn 0.1100 0.7750 0.6224
vn 0.1535 0.7935 0.5889
vn 0.1933 0.8109 0.5523
vn 0.2244 0.8225 0.5226
vn 0.2452 0.8298 0.5014
vn 0.2615 0.8370 0.4807
vn 0.2771 0.8441 0.4590
vn 0.2916 0.8507 0.4374
vn 0.3054 0.8571 0.4148
vn 0.3183 0.8629 0.3924
vn 0.3304 0.8687 0.3690
vn 0.3416 0.8739 0.3459
vn 0.3520 0.8788 0.3221
vn 0.3615 0.8833 0.2984
vn 0.3703 0.8876 0.2740
vn 0.3783 0.8913 0.2498
vn 0.3855 0.8948 0.2252
vn 0.3919 0.8979 0.2006
vn 0.3974 0.9007 0.1757
vn 0.4022 0.9030 0.1509
vn 0.4068 0.9048 0.1260
vn 0.4096 0.9067 0.1008
vn 0.4124 0.9079 0.0756
vn 0.4141 0.9088 0.0504
vn 0.4150 0.9095 0.0252
vn 0.4158 0.9095 -0.0000
vn -0.5851 0.5850 0.5617
vn 0.4154 0.9093 -0.0253
vn 0.4143 0.9087 -0.0506
vn 0.4123 0.9079 -0.0756
vn 0.4095 0.9067 -0.1008
vn 0.4063 0.9050 -0.1258
vn 0.4022 0.9031 -0.1509
vn 0.3974 0.9007 -0.1757
vn 0.3919 0.8979 -0.2006
vn 0.3854 0.8948 -0.2252
vn 0.3782 0.8914 -0.2498
vn 0.3703 0.8876 -0.2740
vn 0.3615 0.8833 -0.2984
vn 0.3520 0.8789 -0.3221
vn 0.3415 0.8739 -0.3459
vn 0.3304 0.8687 -0.3690
vn 0.3183 0.8630 -0.3924
vn 0.3054 0.8571 -0.4148
vn 0.2916 0.8507 -0.4374
vn 0.2771 0.8441 -0.4590
vn 0.2615 0.8370 -0.4807
vn 0.2452 0.8298 -0.5014
vn 0.2244 0.8225 -0.5226
vn 0.1933 0.8109 -0.5524
vn 0.1535 0.7935 -0.5889
vn 0.1100 0.7750 -0.6224
vn -0.5850 -0.5850 0.5617
vn -0.5850 0.5851 0.5617
vn 0.5850 0.5851 -0.5617
vn -0.5850 0.5850 -0.5617
vn -0.5850 -0.5851 -0.5617
vn -0.3117 0.3117 0.8976
vn 0.3117 0.3117 0.8976
vn -0.3117 -0.3117 0.8976
vn -0.3117 0.3117 -0.8976
vn -0.3117 -0.3117 -0.8976
vn 0.3117 -0.3117 0.8976
vn 0.3117 -0.3117 -0.8976
vn 0.3117 0.3117 -0.8976
vn -0.5851 -0.5850 0.5617
vn -0.5851 -0.5851 -0.5616
vn -0.5851 0.5850 -0.5616
vn -0.5850 -0.5850 -0.5617
vn -0.5851 -0.5850 0.5616
vn -0.5850 0.5850 0.5617
vn 0.5851 0.5850 0.5616
vn 0.5851 -0.5850 -0.5616
vn 0.0810 0.0681 -0.9944
vn 0.1601 0.1343 -0.9779
vn 0.2381 0.1997 -0.9505
vn 0.3129 0.2622 -0.9129
vn 0.3834 0.3215 -0.8658
vn 0.4498 0.3774 -0.8095
vn 0.5107 0.4285 -0.7453
vn 0.5660 0.4749 -0.6739
vn 0.6148 0.5158 -0.5966
vn 0.6573 0.5515 -0.5136
vn 0.6931 0.5816 -0.4259
vn 0.7218 0.6056 -0.3351
vn 0.7434 0.6238 -0.2413
vn 0.7579 0.6359 -0.1454
vn 0.7651 0.6420 -0.0484
vn 0.7651 0.6420 0.0484
vn 0.7579 0.6359 0.1458
vn 0.7434 0.6238 0.2413
vn 0.7218 0.6056 0.3351
vn 0.6931 0.5816 0.4259
vn 0.6573 0.5515 0.5136
vn 0.6150 0.5159 0.5964
vn 0.5660 0.4749 0.6739
vn 0.5107 0.4285 0.7453
vn 0.4497 0.3773 0.8095
vn 0.3834 0.3215 0.8658
vn 0.3127 0.2620 0.9130
vn 0.2380 0.1996 0.9505
vn 0.1604 0.1346 0.9778
vn 0.5851 -0.5851 0.5616
vn 0.5850 -0.5851 -0.5616
s 1
usemtl Part__Feature005_001_005_001.008
f 1//1 2//2 3//3
f 1//1 3//3 4//4
f 4//4 3//3 5//5
f 4//4 5//5 6//6
f 6//6 5//5 7//7
f 6//6 7//7 8//8
f 8//8 7//7 2//2
f 8//8 2//2 1//1
f 4//4 6//6 8//8
f 4//4 8//8 1//1
f 5//5 3//3 2//2
f 5//5 2//2 7//7
f 9//9 10//10 11//11
f 12//12 13//13 14//14
f 14//14 13//13 15//15
f 14//14 15//15 16//16
f 17//17 9//9 11//11
f 16//16 18//18 14//14
f 18//18 16//16 19//6
f 19//6 16//16 20//19
f 20//19 16//16 15//15
f 20//19 15//15 21//20
f 21//20 22//21 20//19
f 20//19 22//21 23//22
f 20//19 23//22 24//23
f 24//23 25//24 20//19
f 20//19 25//24 26//25
f 20//19 26//25 27//26
f 27//26 28//27 20//19
f 20//19 28//27 29//28
f 20//19 29//28 30//29
f 30//29 31//30 20//19
f 20//19 31//30 32//31
f 20//19 32//31 33//32
f 33//32 34//33 20//19
f 20//19 34//33 35//34
f 20//19 35//34 36//35
f 36//35 37//36 20//19
f 20//19 37//36 38//37
f 20//19 38//37 39//38
f 39//38 40//39 20//19
f 20//19 40//39 41//40
f 20//19 41//40 42//41
f 42//41 43//42 20//19
f 20//19 43//42 44//43
f 20//19 44//43 45//44
f 45//44 46//45 20//19
f 20//19 46//45 47//46
f 20//19 47//46 48//47
f 20//19 48//47 49//48
f 49//48 48//47 50//49
f 49//48 50//49 51//50
f 51//50 52//51 49//48
f 49//48 52//51 53//52
f 49//48 53//52 54//53
f 54//53 55//54 49//48
f 49//48 55//54 56//55
f 49//48 56//55 57//56
f 57//56 58//57 49//48
f 49//48 58//57 59//58
f 49//48 59//58 60//59
f 60//59 61//60 49//48
f 49//48 61//60 62//61
f 49//48 62//61 63//62
f 63//62 64//63 49//48
f 49//48 64//63 65//64
f 49//48 65//64 66//65
f 66//65 67//66 49//48
f 49//48 67//66 68//67
f 49//48 68//67 69//68
f 69//68 70//69 49//48
f 49//48 70//69 71//70
f 49//48 71//70 72//71
f 72//71 73//72 49//48
f 49//48 73//72 74//73
f 49//48 74//73 75//74
f 75//74 76//75 49//48
f 49//48 76//75 77//76
f 49//48 77//76 9//9
f 17//17 78//8 9//9
f 9//9 78//8 49//48
f 18//18 19//6 14//14
f 14//14 19//6 12//12
f 12//12 19//6 79//77
f 12//12 79//77 80//78
f 80//78 79//77 81//79
f 81//79 79//77 82//80
f 82//80 79//77 83//81
f 83//81 79//77 84//82
f 84//82 79//77 85//83
f 85//83 79//77 86//84
f 86//84 79//77 87//85
f 87//85 79//77 88//86
f 88//86 79//77 89//87
f 89//87 79//77 90//88
f 90//88 79//77 91//89
f 91//89 79//77 92//90
f 92//90 79//77 93//91
f 93//91 79//77 94//92
f 94//92 79//77 95//93
f 95//93 79//77 96//94
f 96//94 79//77 97//95
f 97//95 79//77 98//96
f 98//96 79//77 99//97
f 99//97 79//77 100//98
f 100//98 79//77 101//99
f 101//99 79//77 102//100
f 102//100 79//77 103//101
f 103//101 79//77 104//102
f 104//102 79//77 105//103
f 105//103 79//77 106//104
f 105//103 106//104 107//105
f 107//105 106//104 108//106
f 108//106 106//104 109//107
f 109//107 106//104 110//108
f 110//108 106//104 111//109
f 111//109 106//104 112//110
f 112//110 106//104 113//111
f 113//111 106//104 114//112
f 114//112 106//104 115//113
f 115//113 106//104 116//114
f 116//114 106//104 117//115
f 117//115 106//104 118//116
f 118//116 106//104 119//117
f 119//117 106//104 120//118
f 120//118 106//104 121//119
f 121//119 106//104 122//120
f 122//120 106//104 123//121
f 123//121 106//104 124//122
f 124//122 106//104 125//123
f 125//123 106//104 126//124
f 126//124 106//104 127//125
f 127//125 106//104 128//126
f 128//126 106//104 129//127
f 129//127 106//104 130//128
f 130//128 106//104 131//129
f 131//129 106//104 10//10
f 10//10 106//104 78//8
f 10//10 78//8 11//11
f 11//11 78//8 17//17
f 132//48 133//18 134//130
f 134//130 133//18 135//131
f 136//132 137//4 138//133
f 138//133 137//4 139//134
f 135//131 133//18 140//135
f 140//135 133//18 141//136
f 134//130 135//131 142//137
f 142//137 135//131 140//135
f 138//133 139//134 143//138
f 143//138 139//134 144//139
f 133//18 132//48 141//136
f 141//136 132//48 145//140
f 132//48 134//130 145//140
f 145//140 134//130 142//137
f 139//134 137//4 144//139
f 144//139 137//4 146//141
f 136//132 138//133 147//142
f 147//142 138//133 143//138
f 137//4 136//132 146//141
f 146//141 136//132 147//142
f 141//136 49//48 140//135
f 140//135 49//48 78//8
f 140//135 78//8 142//137
f 142//137 78//8 106//104
f 142//137 106//104 145//140
f 145//140 106//104 141//136
f 141//136 106//104 148//143
f 141//136 148//143 49//48
f 106//104 79//77 148//143
f 148//143 79//77 149//144
f 143//138 149//144 147//142
f 147//142 149//144 79//77
f 147//142 79//77 146//141
f 146//141 79//77 19//6
f 146//141 19//6 144//139
f 144//139 19//6 143//138
f 143//138 19//6 20//19
f 143//138 20//19 149//144
f 20//19 49//48 149//144
f 149//144 49//48 148//143
f 150//145 151//146 152//147
f 150//145 152//147 153//148
f 153//148 152//147 154//48
f 153//148 154//48 155//149
f 155//149 154//48 156//150
f 155//149 156//150 157//17
f 157//17 156//150 151//146
f 157//17 151//146 150//145
f 153//148 155//149 157//17
f 153//148 157//17 150//145
f 154//48 152//147 151//146
f 154//48 151//146 156//150
f 77//76 158//151 9//9
f 9//9 158//151 10//10
f 77//76 76//75 158//151
f 158//151 76//75 159//152
f 158//151 159//152 131//129
f 131//129 159//152 130//128
f 130//128 159//152 160//153
f 130//128 160//153 129//127
f 129//127 160//153 161//154
f 129//127 161//154 128//126
f 128//126 161//154 162//155
f 128//126 162//155 127//125
f 127//125 162//155 163//156
f 127//125 163//156 126//124
f 126//124 163//156 125//123
f 125//123 163//156 164//157
f 125//123 164//157 124//122
f 124//122 164//157 123//121
f 123//121 164//157 165//158
f 123//121 165//158 122//120
f 122//120 165//158 121//119
f 121//119 165//158 120//118
f 120//118 165//158 166//159
f 120//118 166//159 119//117
f 119//117 166//159 118//116
f 118//116 166//159 167//160
f 118//116 167//160 117//115
f 117//115 167//160 116//114
f 116//114 167//160 168//161
f 116//114 168//161 115//113
f 115//113 168//161 114//112
f 114//112 168//161 169//162
f 114//112 169//162 113//111
f 113//111 169//162 112//110
f 112//110 169//162 170//163
f 112//110 170//163 111//109
f 111//109 170//163 110//108
f 110//108 170//163 171//164
f 110//108 171//164 109//107
f 109//107 171//164 108//106
f 108//106 171//164 172//165
f 108//106 172//165 107//105
f 107//105 172//165 105//103
f 105//103 172//165 173//166
f 105//103 173//166 104//102
f 104//102 173//166 103//101
f 103//101 173//166 174//167
f 103//101 174//167 102//100
f 102//100 174//167 101//99
f 101//99 174//167 175//168
f 101//99 175//168 100//98
f 100//98 175//168 99//97
f 99//97 175//168 176//169
f 99//97 176//169 98//96
f 98//96 176//169 97//95
f 97//95 176//169 177//170
f 97//95 177//170 96//94
f 96//94 177//170 95//93
f 95//93 177//170 178//171
f 95//93 178//171 94//92
f 94//92 178//171 93//91
f 93//91 178//171 179//172
f 93//91 179//172 92//90
f 92//90 179//172 91//89
f 91//89 179//172 180//173
f 91//89 180//173 90//88
f 90//88 180//173 89//87
f 89//87 180//173 88//86
f 88//86 180//173 181//174
f 88//86 181//174 87//85
f 87//85 181//174 86//84
f 86//84 181//174 182//175
f 86//84 182//175 85//83
f 85//83 182//175 84//82
f 84//82 182//175 183//176
f 84//82 183//176 83//81
f 83//81 183//176 184//177
f 83//81 184//177 82//80
f 82//80 184//177 185//178
f 82//80 185//178 81//79
f 81//79 185//178 186//179
f 81//79 186//179 80//78
f 80//78 186//179 13//13
f 80//78 13//13 12//12
f 76//75 75//74 159//152
f 159//152 75//74 160//153
f 75//74 74//73 160//153
f 160//153 74//73 161//154
f 74//73 73//72 161//154
f 161//154 73//72 72//71
f 161//154 72//71 162//155
f 162//155 72//71 71//70
f 162//155 71//70 70//69
f 162//155 70//69 163//156
f 163//156 70//69 69//68
f 163//156 69//68 68//67
f 163//156 68//67 164//157
f 164//157 68//67 67//66
f 164//157 67//66 66//65
f 164//157 66//65 165//158
f 165//158 66//65 65//64
f 165//158 65//64 64//63
f 165//158 64//63 166//159
f 166//159 64//63 63//62
f 166//159 63//62 62//61
f 62//61 61//60 166//159
f 166//159 61//60 167//160
f 61//60 60//59 167//160
f 167//160 60//59 59//58
f 167//160 59//58 168//161
f 168//161 59//58 58//57
f 168//161 58//57 57//56
f 168//161 57//56 169//162
f 169//162 57//56 56//55
f 169//162 56//55 55//54
f 169//162 55//54 170//163
f 170//163 55//54 54//53
f 170//163 54//53 53//52
f 170//163 53//52 171//164
f 171//164 53//52 52//51
f 171//164 52//51 51//50
f 171//164 51//50 172//165
f 172//165 51//50 50//49
f 172//165 50//49 48//47
f 172//165 48//47 173//166
f 173//166 48//47 47//46
f 173//166 47//46 46//45
f 173//166 46//45 174//167
f 174//167 46//45 45//44
f 174//167 45//44 44//43
f 174//167 44//43 175//168
f 175//168 44//43 43//42
f 175//168 43//42 42//41
f 175//168 42//41 176//169
f 176//169 42//41 41//40
f 176//169 41//40 40//39
f 176//169 40//39 177//170
f 177//170 40//39 39//38
f 177//170 39//38 38//37
f 177//170 38//37 178//171
f 178//171 38//37 37//36
f 178//171 37//36 36//35
f 178//171 36//35 179//172
f 179//172 36//35 35//34
f 179//172 35//34 34//33
f 179//172 34//33 180//173
f 180//173 34//33 33//32
f 180//173 33//32 32//31
f 32//31 31//30 180//173
f 180//173 31//30 181//174
f 31//30 30//29 181//174
f 181//174 30//29 29//28
f 181//174 29//28 182//175
f 182//175 29//28 28//27
f 182//175 28//27 27//26
f 182//175 27//26 183//176
f 183//176 27//26 26//25
f 183//176 26//25 25//24
f 183//176 25//24 184//177
f 184//177 25//24 24//23
f 184//177 24//23 23//22
f 184//177 23//22 185//178
f 185//178 23//22 22//21
f 185//178 22//21 186//179
f 186//179 22//21 21//20
f 186//179 21//20 13//13
f 13//13 21//20 15//15
f 131//129 10//10 158//151
f 187//180 188//2 189//144
f 187//180 189//144 190//181
f 190//181 189//144 191//5
f 190//181 191//5 192//6
f 192//6 191//5 193//7
f 192//6 193//7 194//8
f 194//8 193//7 188//2
f 194//8 188//2 187//180
f 190//181 192//6 194//8
f 190//181 194//8 187//180
f 191//5 189//144 188//2
f 191//5 188//2 193//7
